<?xml version="1.0" encoding="UTF-8"?>
<svg width="744.09" height="1052.4" fill-rule="evenodd" viewBox="0 0 21000 29700" xmlns="http://www.w3.org/2000/svg">
 <path class="fil1 str1" d="m707.52 2266h19534" fill="none" stroke="#000" stroke-linejoin="bevel" stroke-width="10.669"/>
 <path class="fil1 str1" d="m707.52 2917.1v-651.05" fill="none" stroke="#000" stroke-linejoin="bevel" stroke-width="10.669"/>
 <path class="fil1 str1" d="m20242 2917.1h-19534" fill="none" stroke="#000" stroke-linejoin="bevel" stroke-width="10.669"/>
 <path class="fil1 str1" d="m20242 2917.1v-651.05" fill="none" stroke="#000" stroke-linejoin="bevel" stroke-width="10.669"/>
 <path class="fil1 str1" d="m707.52 3568.1h3255.3" fill="none" stroke="#000" stroke-linejoin="bevel" stroke-width="10.669"/>
 <path class="fil1 str1" d="m707.52 3568.1v652.45" fill="none" stroke="#000" stroke-linejoin="bevel" stroke-width="10.669"/>
 <path class="fil1 str1" d="m707.52 4220.6h2604.2" fill="none" stroke="#000" stroke-linejoin="bevel" stroke-width="10.669"/>
 <path class="fil1 str1" d="m3311.7 4220.6v3255.3" fill="none" stroke="#000" stroke-linejoin="bevel" stroke-width="10.669"/>
 <path class="fil1 str1" d="m3311.7 7475.8h-1953.2" fill="none" stroke="#000" stroke-linejoin="bevel" stroke-width="10.669"/>
 <path class="fil1 str1" d="m1358.6 7475.8v-651.05" fill="none" stroke="#000" stroke-linejoin="bevel" stroke-width="10.669"/>
 <path class="fil1 str1" d="m1358.6 6824.8h1302.1" fill="none" stroke="#000" stroke-linejoin="bevel" stroke-width="10.669"/>
 <path class="fil1 str1" d="m2660.7 6824.8v-1953.2" fill="none" stroke="#000" stroke-linejoin="bevel" stroke-width="10.669"/>
 <path class="fil1 str1" d="m2660.7 4871.6h-1953.2" fill="none" stroke="#000" stroke-linejoin="bevel" stroke-width="10.669"/>
 <path class="fil1 str1" d="m707.52 4871.6v651.05" fill="none" stroke="#000" stroke-linejoin="bevel" stroke-width="10.669"/>
 <path class="fil1 str1" d="m2009.6 5522.7h-1302.1" fill="none" stroke="#000" stroke-linejoin="bevel" stroke-width="10.669"/>
 <path class="fil1 str1" d="m2009.6 6173.7v-651.05" fill="none" stroke="#000" stroke-linejoin="bevel" stroke-width="10.669"/>
 <path class="fil1 str1" d="m707.52 6173.7h1302.1" fill="none" stroke="#000" stroke-linejoin="bevel" stroke-width="10.669"/>
 <path class="fil1 str1" d="m707.52 8126.9v-1953.2" fill="none" stroke="#000" stroke-linejoin="bevel" stroke-width="10.669"/>
 <path class="fil1 str1" d="m3962.8 8126.9h-3255.3" fill="none" stroke="#000" stroke-linejoin="bevel" stroke-width="10.669"/>
 <path class="fil1 str1" d="m3962.8 3568.1v4558.8" fill="none" stroke="#000" stroke-linejoin="bevel" stroke-width="10.669"/>
 <path class="fil1 str1" d="m707.52 9429h4558.8" fill="none" stroke="#000" stroke-linejoin="bevel" stroke-width="10.669"/>
 <path class="fil1 str1" d="m5266.3 9429v-5208.4" fill="none" stroke="#000" stroke-linejoin="bevel" stroke-width="10.669"/>
 <path class="fil1 str1" d="m5266.3 4220.6h4557.4" fill="none" stroke="#000" stroke-linejoin="bevel" stroke-width="10.669"/>
 <path class="fil1 str1" d="m9823.7 4220.6v3255.3" fill="none" stroke="#000" stroke-linejoin="bevel" stroke-width="10.669"/>
 <path class="fil1 str1" d="m9823.7 7475.8h-1953.2" fill="none" stroke="#000" stroke-linejoin="bevel" stroke-width="10.669"/>
 <path class="fil1 str1" d="m7870.5 7475.8v-651.05" fill="none" stroke="#000" stroke-linejoin="bevel" stroke-width="10.669"/>
 <path class="fil1 str1" d="m7870.5 6824.8h1302.1" fill="none" stroke="#000" stroke-linejoin="bevel" stroke-width="10.669"/>
 <path class="fil1 str1" d="m9172.6 6824.8v-1953.2" fill="none" stroke="#000" stroke-linejoin="bevel" stroke-width="10.669"/>
 <path class="fil1 str1" d="m9172.6 4871.6h-3255.3" fill="none" stroke="#000" stroke-linejoin="bevel" stroke-width="10.669"/>
 <path class="fil1 str1" d="m5917.4 4871.6v4557.4" fill="none" stroke="#000" stroke-linejoin="bevel" stroke-width="10.669"/>
 <path class="fil1 str1" d="m5917.4 9429h5859.5" fill="none" stroke="#000" stroke-linejoin="bevel" stroke-width="10.669"/>
 <path class="fil1 str1" d="m11777 9429v-5208.4" fill="none" stroke="#000" stroke-linejoin="bevel" stroke-width="10.669"/>
 <path class="fil1 str1" d="m11777 4220.6h4557.4" fill="none" stroke="#000" stroke-linejoin="bevel" stroke-width="10.669"/>
 <path class="fil1 str1" d="m16334 4220.6v3255.3" fill="none" stroke="#000" stroke-linejoin="bevel" stroke-width="10.669"/>
 <path class="fil1 str1" d="m16334 7475.8h-1953.2" fill="none" stroke="#000" stroke-linejoin="bevel" stroke-width="10.669"/>
 <path class="fil1 str1" d="m14381 7475.8v-651.05" fill="none" stroke="#000" stroke-linejoin="bevel" stroke-width="10.669"/>
 <path class="fil1 str1" d="m14381 6824.8h1302.1" fill="none" stroke="#000" stroke-linejoin="bevel" stroke-width="10.669"/>
 <path class="fil1 str1" d="m15683 6824.8v-1953.2" fill="none" stroke="#000" stroke-linejoin="bevel" stroke-width="10.669"/>
 <path class="fil1 str1" d="m15683 4871.6h-3255.3" fill="none" stroke="#000" stroke-linejoin="bevel" stroke-width="10.669"/>
 <path class="fil1 str1" d="m12428 4871.6v4557.4" fill="none" stroke="#000" stroke-linejoin="bevel" stroke-width="10.669"/>
 <path class="fil1 str1" d="m12428 9429h5859.5" fill="none" stroke="#000" stroke-linejoin="bevel" stroke-width="10.669"/>
 <path class="fil1 str1" d="m18287 9429v-5208.4" fill="none" stroke="#000" stroke-linejoin="bevel" stroke-width="10.669"/>
 <path class="fil1 str1" d="m18287 4220.6h1954.6" fill="none" stroke="#000" stroke-linejoin="bevel" stroke-width="10.669"/>
 <path class="fil1 str1" d="m20242 4220.6v-652.45" fill="none" stroke="#000" stroke-linejoin="bevel" stroke-width="10.669"/>
 <path class="fil1 str1" d="m17636 3568.1h2605.6" fill="none" stroke="#000" stroke-linejoin="bevel" stroke-width="10.669"/>
 <path class="fil1 str1" d="m17636 8777.9v-5209.8" fill="none" stroke="#000" stroke-linejoin="bevel" stroke-width="10.669"/>
 <path class="fil1 str1" d="m13079 8777.9h4557.4" fill="none" stroke="#000" stroke-linejoin="bevel" stroke-width="10.669"/>
 <path class="fil1 str1" d="m13079 5522.7v3255.3" fill="none" stroke="#000" stroke-linejoin="bevel" stroke-width="10.669"/>
 <path class="fil1 str1" d="m15032 5522.7h-1953.2" fill="none" stroke="#000" stroke-linejoin="bevel" stroke-width="10.669"/>
 <path class="fil1 str1" d="m15032 6173.7v-651.05" fill="none" stroke="#000" stroke-linejoin="bevel" stroke-width="10.669"/>
 <path class="fil1 str1" d="m13730 6173.7h1302.1" fill="none" stroke="#000" stroke-linejoin="bevel" stroke-width="10.669"/>
 <path class="fil1 str1" d="m13730 8126.9v-1953.2" fill="none" stroke="#000" stroke-linejoin="bevel" stroke-width="10.669"/>
 <path class="fil1 str1" d="m16985 8126.9h-3255.3" fill="none" stroke="#000" stroke-linejoin="bevel" stroke-width="10.669"/>
 <path class="fil1 str1" d="m16985 3568.1v4558.8" fill="none" stroke="#000" stroke-linejoin="bevel" stroke-width="10.669"/>
 <path class="fil1 str1" d="m11126 3568.1h5859.5" fill="none" stroke="#000" stroke-linejoin="bevel" stroke-width="10.669"/>
 <path class="fil1 str1" d="m11126 8777.9v-5209.8" fill="none" stroke="#000" stroke-linejoin="bevel" stroke-width="10.669"/>
 <path class="fil1 str1" d="m6568.4 8777.9h4557.4" fill="none" stroke="#000" stroke-linejoin="bevel" stroke-width="10.669"/>
 <path class="fil1 str1" d="m6568.4 5522.7v3255.3" fill="none" stroke="#000" stroke-linejoin="bevel" stroke-width="10.669"/>
 <path class="fil1 str1" d="m8521.6 5522.7h-1953.2" fill="none" stroke="#000" stroke-linejoin="bevel" stroke-width="10.669"/>
 <path class="fil1 str1" d="m8521.6 6173.7v-651.05" fill="none" stroke="#000" stroke-linejoin="bevel" stroke-width="10.669"/>
 <path class="fil1 str1" d="m7219.5 6173.7h1302.1" fill="none" stroke="#000" stroke-linejoin="bevel" stroke-width="10.669"/>
 <path class="fil1 str1" d="m7219.5 8126.9v-1953.2" fill="none" stroke="#000" stroke-linejoin="bevel" stroke-width="10.669"/>
 <path class="fil1 str1" d="m10475 8126.9h-3255.3" fill="none" stroke="#000" stroke-linejoin="bevel" stroke-width="10.669"/>
 <path class="fil1 str1" d="m10475 3568.1v4558.8" fill="none" stroke="#000" stroke-linejoin="bevel" stroke-width="10.669"/>
 <path class="fil1 str1" d="m4613.8 3568.1h5860.9" fill="none" stroke="#000" stroke-linejoin="bevel" stroke-width="10.669"/>
 <path class="fil1 str1" d="m4613.8 8777.9v-5209.8" fill="none" stroke="#000" stroke-linejoin="bevel" stroke-width="10.669"/>
 <path class="fil1 str1" d="m707.52 8777.9h3906.3" fill="none" stroke="#000" stroke-linejoin="bevel" stroke-width="10.669"/>
 <path class="fil1 str1" d="m707.52 8777.9v651.05" fill="none" stroke="#000" stroke-linejoin="bevel" stroke-width="10.669"/>
 <path class="fil1 str1" d="m20242 10731h-19534" fill="none" stroke="#000" stroke-linejoin="bevel" stroke-width="10.669"/>
 <path class="fil1 str1" d="m20242 10080v651.05" fill="none" stroke="#000" stroke-linejoin="bevel" stroke-width="10.669"/>
 <path class="fil1 str1" d="m707.52 10080h19534" fill="none" stroke="#000" stroke-linejoin="bevel" stroke-width="10.669"/>
 <path class="fil1 str1" d="m707.52 10731v-651.05" fill="none" stroke="#000" stroke-linejoin="bevel" stroke-width="10.669"/>
 <path class="fil1 str1" d="m18938 4871.6v4557.4" fill="none" stroke="#000" stroke-linejoin="bevel" stroke-width="10.669"/>
 <path class="fil1 str1" d="m18938 9429h1303.5" fill="none" stroke="#000" stroke-linejoin="bevel" stroke-width="10.669"/>
 <path class="fil1 str1" d="m20242 9429v-651.05" fill="none" stroke="#000" stroke-linejoin="bevel" stroke-width="10.669"/>
 <path class="fil1 str1" d="m19589 8777.9h652.46" fill="none" stroke="#000" stroke-linejoin="bevel" stroke-width="10.669"/>
 <path class="fil1 str1" d="m19589 5522.7v3255.3" fill="none" stroke="#000" stroke-linejoin="bevel" stroke-width="10.669"/>
 <path class="fil1 str1" d="m20242 5522.7h-652.46" fill="none" stroke="#000" stroke-linejoin="bevel" stroke-width="10.669"/>
 <path class="fil1 str1" d="m20242 5522.7v-651.05" fill="none" stroke="#000" stroke-linejoin="bevel" stroke-width="10.669"/>
 <path class="fil1 str1" d="m20242 4871.6h-1303.5" fill="none" stroke="#000" stroke-linejoin="bevel" stroke-width="10.669"/>
 <path class="fil1 str1" d="m22098 2266h19533" fill="none" stroke="#000" stroke-linejoin="bevel" stroke-width="35.003"/>
 <path class="fil1 str1" d="m22098 2917.1v-651.05" fill="none" stroke="#000" stroke-linejoin="bevel" stroke-width="35.003"/>
 <path class="fil1 str1" d="m41631 2917.1h-19533" fill="none" stroke="#000" stroke-linejoin="bevel" stroke-width="35.003"/>
 <path class="fil1 str1" d="m41631 2917.1v-651.05" fill="none" stroke="#000" stroke-linejoin="bevel" stroke-width="35.003"/>
 <path class="fil1 str1" d="m22098 3568.1h3255.3" fill="none" stroke="#000" stroke-linejoin="bevel" stroke-width="35.003"/>
 <path class="fil1 str1" d="m22098 3568.1v652.45" fill="none" stroke="#000" stroke-linejoin="bevel" stroke-width="35.003"/>
 <path class="fil1 str1" d="m22098 4220.6h2604.2" fill="none" stroke="#000" stroke-linejoin="bevel" stroke-width="35.003"/>
 <path class="fil1 str1" d="m24702 4220.6v3255.3" fill="none" stroke="#000" stroke-linejoin="bevel" stroke-width="35.003"/>
 <path class="fil1 str1" d="m24702 7475.8h-1953.2" fill="none" stroke="#000" stroke-linejoin="bevel" stroke-width="35.003"/>
 <path class="fil1 str1" d="m22749 7475.8v-651.05" fill="none" stroke="#000" stroke-linejoin="bevel" stroke-width="35.003"/>
 <path class="fil1 str1" d="m22749 6824.8h1302.1" fill="none" stroke="#000" stroke-linejoin="bevel" stroke-width="35.003"/>
 <path class="fil1 str1" d="m24051 6824.8v-1953.2" fill="none" stroke="#000" stroke-linejoin="bevel" stroke-width="35.003"/>
 <path class="fil1 str1" d="m24051 4871.6h-1953.2" fill="none" stroke="#000" stroke-linejoin="bevel" stroke-width="35.003"/>
 <path class="fil1 str1" d="m22098 4871.6v651.05" fill="none" stroke="#000" stroke-linejoin="bevel" stroke-width="35.003"/>
 <path class="fil1 str1" d="m23400 5522.7h-1302.1" fill="none" stroke="#000" stroke-linejoin="bevel" stroke-width="35.003"/>
 <path class="fil1 str1" d="m23400 6173.7v-651.05" fill="none" stroke="#000" stroke-linejoin="bevel" stroke-width="35.003"/>
 <path class="fil1 str1" d="m22098 6173.7h1302.1" fill="none" stroke="#000" stroke-linejoin="bevel" stroke-width="35.003"/>
 <path class="fil1 str1" d="m22098 8126.9v-1953.2" fill="none" stroke="#000" stroke-linejoin="bevel" stroke-width="35.003"/>
 <path class="fil1 str1" d="m25353 8126.9h-3255.3" fill="none" stroke="#000" stroke-linejoin="bevel" stroke-width="35.003"/>
 <path class="fil1 str1" d="m25353 3568.1v4558.8" fill="none" stroke="#000" stroke-linejoin="bevel" stroke-width="35.003"/>
 <path class="fil1 str1" d="m22098 9429h4557.4" fill="none" stroke="#000" stroke-linejoin="bevel" stroke-width="35.003"/>
 <path class="fil1 str1" d="m26655 9429v-5208.4" fill="none" stroke="#000" stroke-linejoin="bevel" stroke-width="35.003"/>
 <path class="fil1 str1" d="m26655 4220.6h4557.4" fill="none" stroke="#000" stroke-linejoin="bevel" stroke-width="35.003"/>
 <path class="fil1 str1" d="m31213 4220.6v3255.3" fill="none" stroke="#000" stroke-linejoin="bevel" stroke-width="35.003"/>
 <path class="fil1 str1" d="m31213 7475.8h-1953.2" fill="none" stroke="#000" stroke-linejoin="bevel" stroke-width="35.003"/>
 <path class="fil1 str1" d="m29259 7475.8v-651.05" fill="none" stroke="#000" stroke-linejoin="bevel" stroke-width="35.003"/>
 <path class="fil1 str1" d="m29259 6824.8h1302.1" fill="none" stroke="#000" stroke-linejoin="bevel" stroke-width="35.003"/>
 <path class="fil1 str1" d="m30561 6824.8v-1953.2" fill="none" stroke="#000" stroke-linejoin="bevel" stroke-width="35.003"/>
 <path class="fil1 str1" d="m30561 4871.6h-3255.3" fill="none" stroke="#000" stroke-linejoin="bevel" stroke-width="35.003"/>
 <path class="fil1 str1" d="m27306 4871.6v4557.4" fill="none" stroke="#000" stroke-linejoin="bevel" stroke-width="35.003"/>
 <path class="fil1 str1" d="m27306 9429h5860.9" fill="none" stroke="#000" stroke-linejoin="bevel" stroke-width="35.003"/>
 <path class="fil1 str1" d="m33167 9429v-5208.4" fill="none" stroke="#000" stroke-linejoin="bevel" stroke-width="35.003"/>
 <path class="fil1 str1" d="m33167 4220.6h4557.4" fill="none" stroke="#000" stroke-linejoin="bevel" stroke-width="35.003"/>
 <path class="fil1 str1" d="m37724 4220.6v3255.3" fill="none" stroke="#000" stroke-linejoin="bevel" stroke-width="35.003"/>
 <path class="fil1 str1" d="m37724 7475.8h-1953.2" fill="none" stroke="#000" stroke-linejoin="bevel" stroke-width="35.003"/>
 <path class="fil1 str1" d="m35771 7475.8v-651.05" fill="none" stroke="#000" stroke-linejoin="bevel" stroke-width="35.003"/>
 <path class="fil1 str1" d="m35771 6824.8h1302.1" fill="none" stroke="#000" stroke-linejoin="bevel" stroke-width="35.003"/>
 <path class="fil1 str1" d="m37073 6824.8v-1953.2" fill="none" stroke="#000" stroke-linejoin="bevel" stroke-width="35.003"/>
 <path class="fil1 str1" d="m37073 4871.6h-3255.3" fill="none" stroke="#000" stroke-linejoin="bevel" stroke-width="35.003"/>
 <path class="fil1 str1" d="m33818 4871.6v4557.4" fill="none" stroke="#000" stroke-linejoin="bevel" stroke-width="35.003"/>
 <path class="fil1 str1" d="m33818 9429h5859.5" fill="none" stroke="#000" stroke-linejoin="bevel" stroke-width="35.003"/>
 <path class="fil1 str1" d="m39678 9429v-5208.4" fill="none" stroke="#000" stroke-linejoin="bevel" stroke-width="35.003"/>
 <path class="fil1 str1" d="m39678 4220.6h1953.2" fill="none" stroke="#000" stroke-linejoin="bevel" stroke-width="35.003"/>
 <path class="fil1 str1" d="m41631 4220.6v-652.45" fill="none" stroke="#000" stroke-linejoin="bevel" stroke-width="35.003"/>
 <path class="fil1 str1" d="m39027 3568.1h2604.2" fill="none" stroke="#000" stroke-linejoin="bevel" stroke-width="35.003"/>
 <path class="fil1 str1" d="m39027 8777.9v-5209.8" fill="none" stroke="#000" stroke-linejoin="bevel" stroke-width="35.003"/>
 <path class="fil1 str1" d="m34469 8777.9h4557.4" fill="none" stroke="#000" stroke-linejoin="bevel" stroke-width="35.003"/>
 <path class="fil1 str1" d="m34469 5522.7v3255.3" fill="none" stroke="#000" stroke-linejoin="bevel" stroke-width="35.003"/>
 <path class="fil1 str1" d="m36422 5522.7h-1953.2" fill="none" stroke="#000" stroke-linejoin="bevel" stroke-width="35.003"/>
 <path class="fil1 str1" d="m36422 6173.7v-651.05" fill="none" stroke="#000" stroke-linejoin="bevel" stroke-width="35.003"/>
 <path class="fil1 str1" d="m35120 6173.7h1302.1" fill="none" stroke="#000" stroke-linejoin="bevel" stroke-width="35.003"/>
 <path class="fil1 str1" d="m35120 8126.9v-1953.2" fill="none" stroke="#000" stroke-linejoin="bevel" stroke-width="35.003"/>
 <path class="fil1 str1" d="m38376 8126.9h-3255.3" fill="none" stroke="#000" stroke-linejoin="bevel" stroke-width="35.003"/>
 <path class="fil1 str1" d="m38376 3568.1v4558.8" fill="none" stroke="#000" stroke-linejoin="bevel" stroke-width="35.003"/>
 <path class="fil1 str1" d="m32516 3568.1h5859.5" fill="none" stroke="#000" stroke-linejoin="bevel" stroke-width="35.003"/>
 <path class="fil1 str1" d="m32516 8777.9v-5209.8" fill="none" stroke="#000" stroke-linejoin="bevel" stroke-width="35.003"/>
 <path class="fil1 str1" d="m27957 8777.9h4558.8" fill="none" stroke="#000" stroke-linejoin="bevel" stroke-width="35.003"/>
 <path class="fil1 str1" d="m27957 5522.7v3255.3" fill="none" stroke="#000" stroke-linejoin="bevel" stroke-width="35.003"/>
 <path class="fil1 str1" d="m29910 5522.7h-1953.2" fill="none" stroke="#000" stroke-linejoin="bevel" stroke-width="35.003"/>
 <path class="fil1 str1" d="m29910 6173.7v-651.05" fill="none" stroke="#000" stroke-linejoin="bevel" stroke-width="35.003"/>
 <path class="fil1 str1" d="m28608 6173.7h1302.1" fill="none" stroke="#000" stroke-linejoin="bevel" stroke-width="35.003"/>
 <path class="fil1 str1" d="m28608 8126.9v-1953.2" fill="none" stroke="#000" stroke-linejoin="bevel" stroke-width="35.003"/>
 <path class="fil1 str1" d="m31865 8126.9h-3256.7" fill="none" stroke="#000" stroke-linejoin="bevel" stroke-width="35.003"/>
 <path class="fil1 str1" d="m31865 3568.1v4558.8" fill="none" stroke="#000" stroke-linejoin="bevel" stroke-width="35.003"/>
 <path class="fil1 str1" d="m26004 3568.1h5860.9" fill="none" stroke="#000" stroke-linejoin="bevel" stroke-width="35.003"/>
 <path class="fil1 str1" d="m26004 8777.9v-5209.8" fill="none" stroke="#000" stroke-linejoin="bevel" stroke-width="35.003"/>
 <path class="fil1 str1" d="m22098 8777.9h3906.3" fill="none" stroke="#000" stroke-linejoin="bevel" stroke-width="35.003"/>
 <path class="fil1 str1" d="m22098 8777.9v651.05" fill="none" stroke="#000" stroke-linejoin="bevel" stroke-width="35.003"/>
 <path class="fil1 str1" d="m41631 10731h-19533" fill="none" stroke="#000" stroke-linejoin="bevel" stroke-width="35.003"/>
 <path class="fil1 str1" d="m41631 10080v651.05" fill="none" stroke="#000" stroke-linejoin="bevel" stroke-width="35.003"/>
 <path class="fil1 str1" d="m22098 10080h19533" fill="none" stroke="#000" stroke-linejoin="bevel" stroke-width="35.003"/>
 <path class="fil1 str1" d="m22098 10731v-651.05" fill="none" stroke="#000" stroke-linejoin="bevel" stroke-width="35.003"/>
 <path class="fil1 str1" d="m40329 4871.6v4557.4" fill="none" stroke="#000" stroke-linejoin="bevel" stroke-width="35.003"/>
 <path class="fil1 str1" d="m40329 9429h1302.1" fill="none" stroke="#000" stroke-linejoin="bevel" stroke-width="35.003"/>
 <path class="fil1 str1" d="m41631 9429v-651.05" fill="none" stroke="#000" stroke-linejoin="bevel" stroke-width="35.003"/>
 <path class="fil1 str1" d="m40980 8777.9h651.06" fill="none" stroke="#000" stroke-linejoin="bevel" stroke-width="35.003"/>
 <path class="fil1 str1" d="m40980 5522.7v3255.3" fill="none" stroke="#000" stroke-linejoin="bevel" stroke-width="35.003"/>
 <path class="fil1 str1" d="m41631 5522.7h-651.06" fill="none" stroke="#000" stroke-linejoin="bevel" stroke-width="35.003"/>
 <path class="fil1 str1" d="m41631 5522.7v-651.05" fill="none" stroke="#000" stroke-linejoin="bevel" stroke-width="35.003"/>
 <path class="fil1 str1" d="m41631 4871.6h-1302.1" fill="none" stroke="#000" stroke-linejoin="bevel" stroke-width="35.003"/>
 <path transform="matrix(1.4001 0 0 1.4001 -280.96 -899.66)" d="m706 2726h13952v-465h-13952z" stroke="#000" stroke-width="7.62"/>
 <path transform="matrix(1.4001 0 0 1.4001 -280.96 -899.66)" d="m2566 3657v2325h-1395v-465h930v-1395h-1395v465h930v465h-930v1395h2325v-3256h-2325v466z" stroke="#000" stroke-width="7.62"/>
 <path transform="matrix(1.4001 0 0 1.4001 -280.96 -899.66)" d="m3962 7377v-3720h3255v2325h-1395v-465h930v-1395h-2325v3255h4185v-3720h3255v2325h-1395v-465h930v-1395h-2325v3255h4185v-3720h1396v-466h-1861v3721h-3255v-2325h1395v465h-930v1395h2325v-3256h-4185v3721h-3255v-2325h1395v465h-930v1395h2325v-3256h-4186v3721h-2790v465z" stroke="#000" stroke-width="7.62"/>
 <path transform="matrix(1.4001 0 0 1.4001 -280.96 -899.66)" d="m14192 6912v-2325h466v-465h-931v3255h931v-465z" stroke="#000" stroke-width="7.62"/>
 <path transform="matrix(1.4001 0 0 1.4001 -280.96 -899.66)" d="m14658 7842h-13952v465h13952z" stroke="#000" stroke-width="7.62"/>
</svg>
